STARTFONT 2.1
FONT --International-Medium-R-Normal--15-150-72-72-M-90-ISO8859-1
SIZE 15 72 72
FONTBOUNDINGBOX 9 15 0 -3
STARTPROPERTIES 22
_DEC_DEVICE_FONTNAMES "FM=International"
COMMENT Begin LogicalFontDescription
FONTNAME_REGISTRY ""
FAMILY_NAME "International"
FOUNDRY ""
WEIGHT_NAME "Medium"
SLANT "R"
SETWIDTH_NAME "Normal"
ADD_STYLE_NAME ""
PIXEL_SIZE 15
POINT_SIZE 150
RESOLUTION_X 72
RESOLUTION_Y 72
SPACING "M"
AVERAGE_WIDTH 90
CHARSET_REGISTRY "ISO8859"
CHARSET_ENCODING "1"
COMMENT END LogicalFontDescription
CHARSET_COLLECTIONS "ASCII ISO8859-1"
FULL_NAME "International"
COMMENT ***** end of inserted font properties
FONT_ASCENT 12
FONT_DESCENT 3
CAP_HEIGHT 10
X_HEIGHT 7
ENDPROPERTIES
CHARS 190
STARTCHAR space
ENCODING 32
SWIDTH 602 0
DWIDTH 9 0
BBX 1 1 0 0
BITMAP
00
ENDCHAR
STARTCHAR exclam
ENCODING 33
SWIDTH 602 0
DWIDTH 9 0
BBX 9 10 0 0
BITMAP
1800
1800
1800
1800
1800
1800
1800
0000
1800
1800
ENDCHAR
STARTCHAR quotedbl
ENCODING 34
SWIDTH 602 0
DWIDTH 9 0
BBX 9 3 0 7
BITMAP
6c00
6c00
6c00
ENDCHAR
STARTCHAR numbersign
ENCODING 35
SWIDTH 602 0
DWIDTH 9 0
BBX 9 8 0 0
BITMAP
3600
2400
fe00
2400
4800
fe00
4800
d800
ENDCHAR
STARTCHAR dollar
ENCODING 36
SWIDTH 602 0
DWIDTH 9 0
BBX 9 12 0 -1
BITMAP
1000
1000
7c00
d600
f000
7000
1c00
1e00
d600
7c00
1000
1000
ENDCHAR
STARTCHAR percent
ENCODING 37
SWIDTH 602 0
DWIDTH 9 0
BBX 9 10 0 0
BITMAP
6600
9600
9c00
6c00
1800
3000
6c00
7200
d200
cc00
ENDCHAR
STARTCHAR ampersand
ENCODING 38
SWIDTH 602 0
DWIDTH 9 0
BBX 9 10 0 0
BITMAP
3800
2c00
6c00
6800
3600
7600
da00
cc00
ce00
7600
ENDCHAR
STARTCHAR quoteright
ENCODING 39
SWIDTH 602 0
DWIDTH 9 0
BBX 9 4 0 6
BITMAP
3000
3000
3000
2000
ENDCHAR
STARTCHAR parenleft
ENCODING 40
SWIDTH 602 0
DWIDTH 9 0
BBX 9 12 0 -1
BITMAP
0800
1800
3000
3000
3000
3000
3000
3000
3000
3000
1800
0800
ENDCHAR
STARTCHAR parenright
ENCODING 41
SWIDTH 602 0
DWIDTH 9 0
BBX 9 12 0 -1
BITMAP
1000
1800
0c00
0c00
0c00
0c00
0c00
0c00
0c00
0c00
1800
1000
ENDCHAR
STARTCHAR asterisk
ENCODING 42
SWIDTH 602 0
DWIDTH 9 0
BBX 9 7 0 1
BITMAP
1800
5a00
7e00
3c00
7e00
5a00
1800
ENDCHAR
STARTCHAR plus
ENCODING 43
SWIDTH 602 0
DWIDTH 9 0
BBX 9 8 0 1
BITMAP
1800
1800
1800
7e00
7e00
1800
1800
1800
ENDCHAR
STARTCHAR comma
ENCODING 44
SWIDTH 602 0
DWIDTH 9 0
BBX 9 4 0 -1
BITMAP
3000
3000
3000
6000
ENDCHAR
STARTCHAR minus
ENCODING 45
SWIDTH 602 0
DWIDTH 9 0
BBX 9 2 0 4
BITMAP
fc00
fc00
ENDCHAR
STARTCHAR period
ENCODING 46
SWIDTH 602 0
DWIDTH 9 0
BBX 9 3 0 0
BITMAP
3000
3000
3000
ENDCHAR
STARTCHAR slash
ENCODING 47
SWIDTH 602 0
DWIDTH 9 0
BBX 9 10 0 0
BITMAP
0c00
0c00
1800
1800
3000
3000
6000
6000
c000
c000
ENDCHAR
STARTCHAR zero
ENCODING 48
SWIDTH 602 0
DWIDTH 9 0
BBX 9 10 0 0
BITMAP
7e00
c600
c600
c600
c600
c600
c600
c600
c600
fc00
ENDCHAR
STARTCHAR one
ENCODING 49
SWIDTH 602 0
DWIDTH 9 0
BBX 9 10 0 0
BITMAP
1800
7800
1800
1800
1800
1800
1800
1800
1800
1800
ENDCHAR
STARTCHAR two
ENCODING 50
SWIDTH 602 0
DWIDTH 9 0
BBX 9 10 0 0
BITMAP
7c00
c600
c600
0600
0c00
1800
3000
6000
c000
fe00
ENDCHAR
STARTCHAR three
ENCODING 51
SWIDTH 602 0
DWIDTH 9 0
BBX 9 10 0 0
BITMAP
7c00
c600
c600
0600
1c00
0600
0600
c600
c600
7c00
ENDCHAR
STARTCHAR four
ENCODING 52
SWIDTH 602 0
DWIDTH 9 0
BBX 9 10 0 0
BITMAP
0600
0e00
1600
2600
4600
8600
fe00
0600
0600
0600
ENDCHAR
STARTCHAR five
ENCODING 53
SWIDTH 602 0
DWIDTH 9 0
BBX 9 10 0 0
BITMAP
fe00
c000
c000
c000
fc00
0600
0600
0600
c600
7c00
ENDCHAR
STARTCHAR six
ENCODING 54
SWIDTH 602 0
DWIDTH 9 0
BBX 9 10 0 0
BITMAP
7c00
c600
c000
c000
fc00
c600
c600
c600
c600
7c00
ENDCHAR
STARTCHAR seven
ENCODING 55
SWIDTH 602 0
DWIDTH 9 0
BBX 9 10 0 0
BITMAP
fe00
0600
0600
0c00
1800
3000
3000
3000
3000
3000
ENDCHAR
STARTCHAR eight
ENCODING 56
SWIDTH 602 0
DWIDTH 9 0
BBX 9 10 0 0
BITMAP
7c00
c600
c600
c600
7c00
c600
c600
c600
c600
7c00
ENDCHAR
STARTCHAR nine
ENCODING 57
SWIDTH 602 0
DWIDTH 9 0
BBX 9 10 0 0
BITMAP
7c00
c600
c600
c600
c600
7e00
0600
0600
c600
7c00
ENDCHAR
STARTCHAR colon
ENCODING 58
SWIDTH 602 0
DWIDTH 9 0
BBX 9 8 0 0
BITMAP
1800
1800
1800
0000
0000
1800
1800
1800
ENDCHAR
STARTCHAR semicolon
ENCODING 59
SWIDTH 602 0
DWIDTH 9 0
BBX 9 9 0 -1
BITMAP
3000
3000
3000
0000
0000
3000
3000
3000
6000
ENDCHAR
STARTCHAR less
ENCODING 60
SWIDTH 602 0
DWIDTH 9 0
BBX 9 9 0 0
BITMAP
0400
0c00
1800
3000
6000
3000
1800
0c00
0400
ENDCHAR
STARTCHAR equal
ENCODING 61
SWIDTH 602 0
DWIDTH 9 0
BBX 9 6 0 2
BITMAP
fc00
fc00
0000
0000
fc00
fc00
ENDCHAR
STARTCHAR greater
ENCODING 62
SWIDTH 602 0
DWIDTH 9 0
BBX 9 9 0 0
BITMAP
8000
c000
6000
3000
1800
3000
6000
c000
8000
ENDCHAR
STARTCHAR question
ENCODING 63
SWIDTH 602 0
DWIDTH 9 0
BBX 9 9 0 0
BITMAP
7800
cc00
cc00
cc00
1800
3000
3000
0000
3000
ENDCHAR
STARTCHAR at
ENCODING 64
SWIDTH 602 0
DWIDTH 9 0
BBX 9 10 0 0
BITMAP
7c00
c600
de00
e600
e600
e600
e600
dc00
c200
7c00
ENDCHAR
STARTCHAR A
ENCODING 65
SWIDTH 602 0
DWIDTH 9 0
BBX 9 10 0 0
BITMAP
7c00
c600
c600
c600
fe00
c600
c600
c600
c600
c600
ENDCHAR
STARTCHAR B
ENCODING 66
SWIDTH 602 0
DWIDTH 9 0
BBX 9 10 0 0
BITMAP
fc00
c600
c600
c600
fc00
c600
c600
c600
c600
fc00
ENDCHAR
STARTCHAR C
ENCODING 67
SWIDTH 602 0
DWIDTH 9 0
BBX 9 10 0 0
BITMAP
7c00
c600
c600
c000
c000
c000
c000
c600
c600
7c00
ENDCHAR
STARTCHAR D
ENCODING 68
SWIDTH 602 0
DWIDTH 9 0
BBX 9 10 0 0
BITMAP
fc00
c600
c600
c600
c600
c600
c600
c600
c600
fc00
ENDCHAR
STARTCHAR E
ENCODING 69
SWIDTH 602 0
DWIDTH 9 0
BBX 9 10 0 0
BITMAP
fe00
c000
c000
c000
f800
c000
c000
c000
c000
fe00
ENDCHAR
STARTCHAR F
ENCODING 70
SWIDTH 602 0
DWIDTH 9 0
BBX 9 10 0 0
BITMAP
fe00
c000
c000
c000
f800
c000
c000
c000
c000
c000
ENDCHAR
STARTCHAR G
ENCODING 71
SWIDTH 602 0
DWIDTH 9 0
BBX 9 10 0 0
BITMAP
7c00
c600
c600
c000
c000
de00
c600
c600
c600
7c00
ENDCHAR
STARTCHAR H
ENCODING 72
SWIDTH 602 0
DWIDTH 9 0
BBX 9 10 0 0
BITMAP
c600
c600
c600
c600
fe00
c600
c600
c600
c600
c600
ENDCHAR
STARTCHAR I
ENCODING 73
SWIDTH 602 0
DWIDTH 9 0
BBX 9 10 0 0
BITMAP
3c00
1800
1800
1800
1800
1800
1800
1800
1800
3c00
ENDCHAR
STARTCHAR J
ENCODING 74
SWIDTH 602 0
DWIDTH 9 0
BBX 9 10 0 0
BITMAP
0600
0600
0600
0600
0600
0600
c600
c600
c600
7c00
ENDCHAR
STARTCHAR K
ENCODING 75
SWIDTH 602 0
DWIDTH 9 0
BBX 9 10 0 0
BITMAP
c200
c600
cc00
d800
f000
f000
d800
cc00
c600
c200
ENDCHAR
STARTCHAR L
ENCODING 76
SWIDTH 602 0
DWIDTH 9 0
BBX 9 10 0 0
BITMAP
c000
c000
c000
c000
c000
c000
c000
c000
c000
fe00
ENDCHAR
STARTCHAR M
ENCODING 77
SWIDTH 602 0
DWIDTH 9 0
BBX 9 10 0 0
BITMAP
8200
c600
ee00
be00
9600
8600
8600
8600
8600
8600
ENDCHAR
STARTCHAR N
ENCODING 78
SWIDTH 602 0
DWIDTH 9 0
BBX 9 10 0 0
BITMAP
8200
c200
e200
f200
ba00
9e00
8e00
8600
8200
8200
ENDCHAR
STARTCHAR O
ENCODING 79
SWIDTH 602 0
DWIDTH 9 0
BBX 9 10 0 0
BITMAP
7c00
c600
c600
c600
c600
c600
c600
c600
c600
7c00
ENDCHAR
STARTCHAR P
ENCODING 80
SWIDTH 602 0
DWIDTH 9 0
BBX 9 10 0 0
BITMAP
fc00
c600
c600
c600
c600
fc00
c000
c000
c000
c000
ENDCHAR
STARTCHAR Q
ENCODING 81
SWIDTH 602 0
DWIDTH 9 0
BBX 9 12 0 -2
BITMAP
7c00
c600
c600
c600
c600
c600
c600
c600
ce00
7c00
0600
0600
ENDCHAR
STARTCHAR R
ENCODING 82
SWIDTH 602 0
DWIDTH 9 0
BBX 9 10 0 0
BITMAP
fc00
c600
c600
c600
c600
fc00
cc00
c600
c600
c600
ENDCHAR
STARTCHAR S
ENCODING 83
SWIDTH 602 0
DWIDTH 9 0
BBX 9 10 0 0
BITMAP
7c00
c600
c600
e000
7800
1c00
0600
c600
c600
7c00
ENDCHAR
STARTCHAR T
ENCODING 84
SWIDTH 602 0
DWIDTH 9 0
BBX 9 10 0 0
BITMAP
ff00
1800
1800
1800
1800
1800
1800
1800
1800
1800
ENDCHAR
STARTCHAR U
ENCODING 85
SWIDTH 602 0
DWIDTH 9 0
BBX 9 10 0 0
BITMAP
c600
c600
c600
c600
c600
c600
c600
c600
c600
7c00
ENDCHAR
STARTCHAR V
ENCODING 86
SWIDTH 602 0
DWIDTH 9 0
BBX 9 10 0 0
BITMAP
c600
c600
c600
c600
c600
c600
c600
cc00
f800
7000
ENDCHAR
STARTCHAR W
ENCODING 87
SWIDTH 602 0
DWIDTH 9 0
BBX 9 10 0 0
BITMAP
c200
c200
c200
c200
c200
d200
fa00
fe00
ee00
4400
ENDCHAR
STARTCHAR X
ENCODING 88
SWIDTH 602 0
DWIDTH 9 0
BBX 9 10 0 0
BITMAP
c600
c600
c600
6c00
3800
3800
6c00
c600
c600
c600
ENDCHAR
STARTCHAR Y
ENCODING 89
SWIDTH 602 0
DWIDTH 9 0
BBX 9 10 0 0
BITMAP
c300
c300
c300
c300
6600
3c00
1800
1800
1800
1800
ENDCHAR
STARTCHAR Z
ENCODING 90
SWIDTH 602 0
DWIDTH 9 0
BBX 9 10 0 0
BITMAP
fe00
0600
0600
0c00
1800
3000
6000
c000
c000
fe00
ENDCHAR
STARTCHAR bracketleft
ENCODING 91
SWIDTH 602 0
DWIDTH 9 0
BBX 9 12 0 -1
BITMAP
7800
6000
6000
6000
6000
6000
6000
6000
6000
6000
6000
7800
ENDCHAR
STARTCHAR backslash
ENCODING 92
SWIDTH 602 0
DWIDTH 9 0
BBX 9 10 0 0
BITMAP
c000
c000
6000
6000
3000
3000
1800
1800
0c00
0c00
ENDCHAR
STARTCHAR bracketright
ENCODING 93
SWIDTH 602 0
DWIDTH 9 0
BBX 9 12 0 -1
BITMAP
3c00
0c00
0c00
0c00
0c00
0c00
0c00
0c00
0c00
0c00
0c00
3c00
ENDCHAR
STARTCHAR asciicircum
ENCODING 94
SWIDTH 602 0
DWIDTH 9 0
BBX 9 3 0 7
BITMAP
3800
6c00
c600
ENDCHAR
STARTCHAR underscore
ENCODING 95
SWIDTH 602 0
DWIDTH 9 0
BBX 9 2 0 -1
BITMAP
fe00
fe00
ENDCHAR
STARTCHAR quoteleft
ENCODING 96
SWIDTH 602 0
DWIDTH 9 0
BBX 9 4 0 6
BITMAP
1800
1800
1800
0800
ENDCHAR
STARTCHAR a
ENCODING 97
SWIDTH 602 0
DWIDTH 9 0
BBX 9 7 0 0
BITMAP
7c00
c600
7e00
c600
c600
ce00
7600
ENDCHAR
STARTCHAR b
ENCODING 98
SWIDTH 602 0
DWIDTH 9 0
BBX 9 10 0 0
BITMAP
c000
c000
c000
dc00
e600
c600
c600
c600
c600
fc00
ENDCHAR
STARTCHAR c
ENCODING 99
SWIDTH 602 0
DWIDTH 9 0
BBX 9 7 0 0
BITMAP
7c00
c600
c000
c000
c000
c600
7c00
ENDCHAR
STARTCHAR d
ENCODING 100
SWIDTH 602 0
DWIDTH 9 0
BBX 9 10 0 0
BITMAP
0600
0600
0600
7e00
c600
c600
c600
c600
ce00
7600
ENDCHAR
STARTCHAR e
ENCODING 101
SWIDTH 602 0
DWIDTH 9 0
BBX 9 7 0 0
BITMAP
7c00
c600
c600
fe00
c000
c600
7c00
ENDCHAR
STARTCHAR f
ENCODING 102
SWIDTH 602 0
DWIDTH 9 0
BBX 9 10 0 0
BITMAP
1c00
3000
3000
7c00
3000
3000
3000
3000
3000
3000
ENDCHAR
STARTCHAR g
ENCODING 103
SWIDTH 602 0
DWIDTH 9 0
BBX 9 9 0 -2
BITMAP
7e00
c600
c600
c600
ce00
7600
0600
c600
7c00
ENDCHAR
STARTCHAR h
ENCODING 104
SWIDTH 602 0
DWIDTH 9 0
BBX 9 10 0 0
BITMAP
c000
c000
c000
dc00
e600
c600
c600
c600
c600
c600
ENDCHAR
STARTCHAR i
ENCODING 105
SWIDTH 602 0
DWIDTH 9 0
BBX 9 10 0 0
BITMAP
1800
1800
0000
3800
1800
1800
1800
1800
1800
3c00
ENDCHAR
STARTCHAR j
ENCODING 106
SWIDTH 602 0
DWIDTH 9 0
BBX 9 12 0 -2
BITMAP
1800
1800
0000
3800
1800
1800
1800
1800
1800
1800
1800
7000
ENDCHAR
STARTCHAR k
ENCODING 107
SWIDTH 602 0
DWIDTH 9 0
BBX 9 10 0 0
BITMAP
c000
c000
c000
ce00
d800
f000
f000
d800
cc00
c600
ENDCHAR
STARTCHAR l
ENCODING 108
SWIDTH 602 0
DWIDTH 9 0
BBX 9 10 0 0
BITMAP
3800
1800
1800
1800
1800
1800
1800
1800
1800
3c00
ENDCHAR
STARTCHAR m
ENCODING 109
SWIDTH 602 0
DWIDTH 9 0
BBX 9 7 0 0
BITMAP
c600
ee00
fe00
d600
c600
c600
c600
ENDCHAR
STARTCHAR n
ENCODING 110
SWIDTH 602 0
DWIDTH 9 0
BBX 9 7 0 0
BITMAP
dc00
e600
c600
c600
c600
c600
c600
ENDCHAR
STARTCHAR o
ENCODING 111
SWIDTH 602 0
DWIDTH 9 0
BBX 9 7 0 0
BITMAP
7c00
c600
c600
c600
c600
c600
7c00
ENDCHAR
STARTCHAR p
ENCODING 112
SWIDTH 602 0
DWIDTH 9 0
BBX 9 9 0 -2
BITMAP
dc00
e600
c600
c600
c600
fc00
c000
c000
c000
ENDCHAR
STARTCHAR q
ENCODING 113
SWIDTH 602 0
DWIDTH 9 0
BBX 9 9 0 -2
BITMAP
7e00
c600
c600
c600
ce00
7600
0600
0600
0600
ENDCHAR
STARTCHAR r
ENCODING 114
SWIDTH 602 0
DWIDTH 9 0
BBX 9 7 0 0
BITMAP
6f00
7300
6000
6000
6000
6000
6000
ENDCHAR
STARTCHAR s
ENCODING 115
SWIDTH 602 0
DWIDTH 9 0
BBX 9 7 0 0
BITMAP
7c00
c600
e000
3800
0e00
c600
7c00
ENDCHAR
STARTCHAR t
ENCODING 116
SWIDTH 602 0
DWIDTH 9 0
BBX 9 10 0 0
BITMAP
3000
3000
3000
fc00
3000
3000
3000
3000
3000
1c00
ENDCHAR
STARTCHAR u
ENCODING 117
SWIDTH 602 0
DWIDTH 9 0
BBX 9 7 0 0
BITMAP
c600
c600
c600
c600
c600
ce00
7600
ENDCHAR
STARTCHAR v
ENCODING 118
SWIDTH 602 0
DWIDTH 9 0
BBX 9 7 0 0
BITMAP
c600
c600
c600
c600
c400
c800
f000
ENDCHAR
STARTCHAR w
ENCODING 119
SWIDTH 602 0
DWIDTH 9 0
BBX 9 7 0 0
BITMAP
c600
c600
c600
d600
fe00
ee00
c600
ENDCHAR
STARTCHAR x
ENCODING 120
SWIDTH 602 0
DWIDTH 9 0
BBX 9 7 0 0
BITMAP
c600
c600
6c00
3800
6c00
c600
c600
ENDCHAR
STARTCHAR y
ENCODING 121
SWIDTH 602 0
DWIDTH 9 0
BBX 9 9 0 -2
BITMAP
c600
c600
c600
c600
ce00
7600
0600
c600
7c00
ENDCHAR
STARTCHAR z
ENCODING 122
SWIDTH 602 0
DWIDTH 9 0
BBX 9 7 0 0
BITMAP
fe00
0600
0c00
3800
6000
c000
fe00
ENDCHAR
STARTCHAR braceleft
ENCODING 123
SWIDTH 602 0
DWIDTH 9 0
BBX 9 12 0 -1
BITMAP
1800
3000
3000
3000
3000
6000
6000
3000
3000
3000
3000
1800
ENDCHAR
STARTCHAR bar
ENCODING 124
SWIDTH 602 0
DWIDTH 9 0
BBX 9 13 0 -2
BITMAP
3000
3000
3000
3000
3000
3000
3000
3000
3000
3000
3000
3000
3000
ENDCHAR
STARTCHAR braceright
ENCODING 125
SWIDTH 602 0
DWIDTH 9 0
BBX 9 12 0 -1
BITMAP
6000
3000
3000
3000
3000
1800
1800
3000
3000
3000
3000
6000
ENDCHAR
STARTCHAR asciitilde
ENCODING 126
SWIDTH 602 0
DWIDTH 9 0
BBX 9 4 0 4
BITMAP
2000
7200
ce00
0400
ENDCHAR
STARTCHAR exclamdown
ENCODING 161
SWIDTH 602 0
DWIDTH 9 0
BBX 9 10 0 -2
BITMAP
1800
1800
0000
1800
1800
1800
1800
1800
1800
1800
ENDCHAR
STARTCHAR cent
ENCODING 162
SWIDTH 602 0
DWIDTH 9 0
BBX 9 11 0 -2
BITMAP
1000
1000
7c00
d600
d000
d000
d000
d600
7c00
1000
1000
ENDCHAR
STARTCHAR sterling
ENCODING 163
SWIDTH 602 0
DWIDTH 9 0
BBX 9 10 0 0
BITMAP
3800
6c00
6000
6000
f800
6000
6000
6000
6000
fe00
ENDCHAR
STARTCHAR currency
ENCODING 164
SWIDTH 602 0
DWIDTH 9 0
BBX 9 8 0 0
BITMAP
8200
fe00
6c00
c600
c600
6c00
fe00
8200
ENDCHAR
STARTCHAR yen
ENCODING 165
SWIDTH 602 0
DWIDTH 9 0
BBX 9 10 0 0
BITMAP
c300
c300
c300
6600
3c00
7e00
1800
7e00
1800
1800
ENDCHAR
STARTCHAR brokenbar
ENCODING 166
SWIDTH 602 0
DWIDTH 9 0
BBX 9 13 0 -2
BITMAP
1800
1800
1800
1800
1800
0000
0000
0000
1800
1800
1800
1800
1800
ENDCHAR
STARTCHAR section
ENCODING 167
SWIDTH 602 0
DWIDTH 9 0
BBX 9 12 0 -2
BITMAP
7c00
c600
c600
7800
fc00
c600
c600
7e00
3c00
c600
c600
7c00
ENDCHAR
STARTCHAR dieresis
ENCODING 168
SWIDTH 602 0
DWIDTH 9 0
BBX 9 2 0 9
BITMAP
3600
3600
ENDCHAR
STARTCHAR copyright
ENCODING 169
SWIDTH 602 0
DWIDTH 9 0
BBX 9 9 0 0
BITMAP
3c00
4200
9d00
b500
b100
b500
9d00
4200
3c00
ENDCHAR
STARTCHAR ordfeminine
ENCODING 170
SWIDTH 602 0
DWIDTH 9 0
BBX 9 8 0 2
BITMAP
3c00
6600
3e00
6600
6e00
3600
0000
7e00
ENDCHAR
STARTCHAR guillemotleft
ENCODING 171
SWIDTH 602 0
DWIDTH 9 0
BBX 9 7 0 1
BITMAP
1b00
3600
6c00
d800
6c00
3600
1b00
ENDCHAR
STARTCHAR logicalnot
ENCODING 172
SWIDTH 602 0
DWIDTH 9 0
BBX 9 3 0 5
BITMAP
7e00
0600
0600
ENDCHAR
STARTCHAR hyphen
ENCODING 173
SWIDTH 602 0
DWIDTH 9 0
BBX 9 2 0 4
BITMAP
7c00
7c00
ENDCHAR
STARTCHAR registered
ENCODING 174
SWIDTH 602 0
DWIDTH 9 0
BBX 9 9 0 0
BITMAP
3c00
4200
bd00
b700
bd00
b500
b700
4200
3c00
ENDCHAR
STARTCHAR macron
ENCODING 175
SWIDTH 602 0
DWIDTH 9 0
BBX 9 2 0 8
BITMAP
3c00
3c00
ENDCHAR
STARTCHAR degree
ENCODING 176
SWIDTH 602 0
DWIDTH 9 0
BBX 9 3 0 7
BITMAP
1c00
1400
1c00
ENDCHAR
STARTCHAR plusminus
ENCODING 177
SWIDTH 602 0
DWIDTH 9 0
BBX 9 9 0 0
BITMAP
1800
1800
7e00
7e00
1800
1800
0000
7e00
7e00
ENDCHAR
STARTCHAR twosuperior
ENCODING 178
SWIDTH 602 0
DWIDTH 9 0
BBX 9 6 0 5
BITMAP
3800
6c00
0c00
3800
6000
7c00
ENDCHAR
STARTCHAR threesuperior
ENCODING 179
SWIDTH 602 0
DWIDTH 9 0
BBX 9 6 0 5
BITMAP
7c00
0c00
3800
0c00
6c00
3800
ENDCHAR
STARTCHAR acute
ENCODING 180
SWIDTH 602 0
DWIDTH 9 0
BBX 9 3 0 8
BITMAP
0600
0c00
1800
ENDCHAR
STARTCHAR mu
ENCODING 181
SWIDTH 602 0
DWIDTH 9 0
BBX 9 9 0 -2
BITMAP
6600
6600
6600
6600
6600
7e00
db00
c000
8000
ENDCHAR
STARTCHAR paragraph
ENCODING 182
SWIDTH 602 0
DWIDTH 9 0
BBX 9 10 0 0
BITMAP
3d00
6500
6500
6500
6500
6500
3d00
0500
0500
0500
ENDCHAR
STARTCHAR periodcentered
ENCODING 183
SWIDTH 602 0
DWIDTH 9 0
BBX 9 5 0 2
BITMAP
1c00
3e00
3e00
3e00
1c00
ENDCHAR
STARTCHAR cedilla
ENCODING 184
SWIDTH 602 0
DWIDTH 9 0
BBX 9 3 0 -3
BITMAP
1800
6c00
3800
ENDCHAR
STARTCHAR onesuperior
ENCODING 185
SWIDTH 602 0
DWIDTH 9 0
BBX 9 7 0 4
BITMAP
0c00
3c00
0c00
0c00
0c00
0c00
0c00
ENDCHAR
STARTCHAR ordmasculine
ENCODING 186
SWIDTH 602 0
DWIDTH 9 0
BBX 9 8 0 2
BITMAP
3c00
6600
6600
6600
6600
3c00
0000
7e00
ENDCHAR
STARTCHAR guillemotright
ENCODING 187
SWIDTH 602 0
DWIDTH 9 0
BBX 9 7 0 1
BITMAP
d800
6c00
3600
1b00
3600
6c00
d800
ENDCHAR
STARTCHAR onequarter
ENCODING 188
SWIDTH 602 0
DWIDTH 9 0
BBX 9 11 0 0
BITMAP
6000
e600
6600
6c00
6f00
7f00
7f00
3b00
3f00
6300
6300
ENDCHAR
STARTCHAR onehalf
ENCODING 189
SWIDTH 602 0
DWIDTH 9 0
BBX 9 11 0 0
BITMAP
6000
e600
6600
6c00
6c00
7e00
7b00
3300
6e00
d800
df00
ENDCHAR
STARTCHAR threequarters
ENCODING 190
SWIDTH 602 0
DWIDTH 9 0
BBX 9 11 0 0
BITMAP
f800
1a00
7600
1c00
df00
7f00
1f00
3b00
3f00
6300
6300
ENDCHAR
STARTCHAR questiondown
ENCODING 191
SWIDTH 602 0
DWIDTH 9 0
BBX 9 10 0 -2
BITMAP
1800
0000
1800
1800
1800
3000
6600
6600
6600
3c00
ENDCHAR
STARTCHAR Agrave
ENCODING 192
SWIDTH 602 0
DWIDTH 9 0
BBX 9 11 0 0
BITMAP
6000
3000
1000
7c00
c600
c600
fe00
c600
c600
c600
c600
ENDCHAR
STARTCHAR Aacute
ENCODING 193
SWIDTH 602 0
DWIDTH 9 0
BBX 9 11 0 0
BITMAP
0c00
1800
1000
7c00
c600
c600
fe00
c600
c600
c600
c600
ENDCHAR
STARTCHAR Acircumflex
ENCODING 194
SWIDTH 602 0
DWIDTH 9 0
BBX 9 12 0 0
BITMAP
1000
3800
6c00
1000
7c00
c600
c600
fe00
c600
c600
c600
c600
ENDCHAR
STARTCHAR Atilde
ENCODING 195
SWIDTH 602 0
DWIDTH 9 0
BBX 9 12 0 0
BITMAP
2400
7c00
d800
0000
7c00
c600
c600
fe00
c600
c600
c600
c600
ENDCHAR
STARTCHAR Adieresis
ENCODING 196
SWIDTH 602 0
DWIDTH 9 0
BBX 9 11 0 0
BITMAP
6c00
6c00
0000
7c00
c600
c600
fe00
c600
c600
c600
c600
ENDCHAR
STARTCHAR Aring
ENCODING 197
SWIDTH 602 0
DWIDTH 9 0
BBX 9 11 0 0
BITMAP
3800
6c00
3800
7c00
c600
c600
fe00
c600
c600
c600
c600
ENDCHAR
STARTCHAR AE
ENCODING 198
SWIDTH 602 0
DWIDTH 9 0
BBX 9 10 0 0
BITMAP
3700
7c00
cc00
cc00
ff00
cc00
cc00
cc00
cc00
cf00
ENDCHAR
STARTCHAR Ccedilla
ENCODING 199
SWIDTH 602 0
DWIDTH 9 0
BBX 9 13 0 -3
BITMAP
7c00
c600
c600
c000
c000
c000
c000
c600
c600
7c00
1800
6c00
3800
ENDCHAR
STARTCHAR Egrave
ENCODING 200
SWIDTH 602 0
DWIDTH 9 0
BBX 9 11 0 0
BITMAP
6000
3000
1000
fe00
c000
c000
f800
c000
c000
c000
fe00
ENDCHAR
STARTCHAR Eacute
ENCODING 201
SWIDTH 602 0
DWIDTH 9 0
BBX 9 11 0 0
BITMAP
0c00
1800
1000
fe00
c000
c000
f800
c000
c000
c000
fe00
ENDCHAR
STARTCHAR Ecircumflex
ENCODING 202
SWIDTH 602 0
DWIDTH 9 0
BBX 9 12 0 0
BITMAP
0800
1c00
3600
0000
fe00
c000
c000
f800
c000
c000
c000
fe00
ENDCHAR
STARTCHAR Edieresis
ENCODING 203
SWIDTH 602 0
DWIDTH 9 0
BBX 9 11 0 0
BITMAP
6c00
6c00
0000
fe00
c000
c000
f800
c000
c000
c000
fe00
ENDCHAR
STARTCHAR Igrave
ENCODING 204
SWIDTH 602 0
DWIDTH 9 0
BBX 9 11 0 0
BITMAP
3000
1800
0800
3c00
1800
1800
1800
1800
1800
1800
3c00
ENDCHAR
STARTCHAR Iacute
ENCODING 205
SWIDTH 602 0
DWIDTH 9 0
BBX 9 11 0 0
BITMAP
0c00
1800
1000
3c00
1800
1800
1800
1800
1800
1800
3c00
ENDCHAR
STARTCHAR Icircumflex
ENCODING 206
SWIDTH 602 0
DWIDTH 9 0
BBX 9 12 0 0
BITMAP
1000
3800
6c00
0000
3c00
1800
1800
1800
1800
1800
1800
3c00
ENDCHAR
STARTCHAR Idieresis
ENCODING 207
SWIDTH 602 0
DWIDTH 9 0
BBX 9 11 0 0
BITMAP
6c00
6c00
0000
3c00
1800
1800
1800
1800
1800
1800
3c00
ENDCHAR
STARTCHAR Eth
ENCODING 208
SWIDTH 602 0
DWIDTH 9 0
BBX 9 10 0 0
BITMAP
7c00
6600
6600
6600
f600
f600
6600
6600
6600
7c00
ENDCHAR
STARTCHAR Ntilde
ENCODING 209
SWIDTH 602 0
DWIDTH 9 0
BBX 9 12 0 0
BITMAP
2400
7c00
d800
0000
c200
e200
f200
ba00
9e00
8e00
8600
8200
ENDCHAR
STARTCHAR Ograve
ENCODING 210
SWIDTH 602 0
DWIDTH 9 0
BBX 9 11 0 0
BITMAP
6000
3000
1000
7c00
c600
c600
c600
c600
c600
c600
7c00
ENDCHAR
STARTCHAR Oacute
ENCODING 211
SWIDTH 602 0
DWIDTH 9 0
BBX 9 11 0 0
BITMAP
0c00
1800
1000
7c00
c600
c600
c600
c600
c600
c600
7c00
ENDCHAR
STARTCHAR Ocircumflex
ENCODING 212
SWIDTH 602 0
DWIDTH 9 0
BBX 9 12 0 0
BITMAP
1000
3800
6c00
0000
7c00
c600
c600
c600
c600
c600
c600
7c00
ENDCHAR
STARTCHAR Otilde
ENCODING 213
SWIDTH 602 0
DWIDTH 9 0
BBX 9 12 0 0
BITMAP
2400
7c00
d800
0000
7c00
c600
c600
c600
c600
c600
c600
7c00
ENDCHAR
STARTCHAR Odieresis
ENCODING 214
SWIDTH 602 0
DWIDTH 9 0
BBX 9 11 0 0
BITMAP
6c00
6c00
0000
7c00
c600
c600
c600
c600
c600
c600
7c00
ENDCHAR
STARTCHAR multiply
ENCODING 215
SWIDTH 602 0
DWIDTH 9 0
BBX 9 7 0 1
BITMAP
c600
ee00
7c00
3800
7c00
ee00
c600
ENDCHAR
STARTCHAR Oslash
ENCODING 216
SWIDTH 602 0
DWIDTH 9 0
BBX 9 12 0 -1
BITMAP
0600
7c00
ce00
ce00
de00
d600
d600
f600
e600
e600
7c00
c000
ENDCHAR
STARTCHAR Ugrave
ENCODING 217
SWIDTH 602 0
DWIDTH 9 0
BBX 9 11 0 0
BITMAP
6000
3000
1800
c600
c600
c600
c600
c600
c600
c600
7c00
ENDCHAR
STARTCHAR Uacute
ENCODING 218
SWIDTH 602 0
DWIDTH 9 0
BBX 9 11 0 0
BITMAP
0c00
1800
3000
c600
c600
c600
c600
c600
c600
c600
7c00
ENDCHAR
STARTCHAR Ucircumflex
ENCODING 219
SWIDTH 602 0
DWIDTH 9 0
BBX 9 12 0 0
BITMAP
1000
3800
6c00
0000
c600
c600
c600
c600
c600
c600
c600
7c00
ENDCHAR
STARTCHAR Udieresis
ENCODING 220
SWIDTH 602 0
DWIDTH 9 0
BBX 9 11 0 0
BITMAP
6c00
6c00
0000
c600
c600
c600
c600
c600
c600
c600
7c00
ENDCHAR
STARTCHAR Yacute
ENCODING 221
SWIDTH 602 0
DWIDTH 9 0
BBX 9 11 0 0
BITMAP
0c00
1800
3000
c300
c300
c300
6600
3c00
1800
1800
1800
ENDCHAR
STARTCHAR Thorn
ENCODING 222
SWIDTH 602 0
DWIDTH 9 0
BBX 9 11 0 0
BITMAP
6000
6000
6000
7c00
6600
6600
6600
7c00
6000
6000
6000
ENDCHAR
STARTCHAR germandbls
ENCODING 223
SWIDTH 602 0
DWIDTH 9 0
BBX 9 10 0 0
BITMAP
f800
cc00
cc00
d800
d800
cc00
c600
c600
d600
dc00
ENDCHAR
STARTCHAR agrave
ENCODING 224
SWIDTH 602 0
DWIDTH 9 0
BBX 9 11 0 0
BITMAP
6000
3000
1800
0000
7c00
c600
7e00
c600
c600
ce00
7600
ENDCHAR
STARTCHAR aacute
ENCODING 225
SWIDTH 602 0
DWIDTH 9 0
BBX 9 11 0 0
BITMAP
0c00
1800
3000
0000
7c00
c600
7e00
c600
c600
ce00
7600
ENDCHAR
STARTCHAR acircumflex
ENCODING 226
SWIDTH 602 0
DWIDTH 9 0
BBX 9 11 0 0
BITMAP
1000
3800
6c00
0000
7c00
c600
7e00
c600
c600
ce00
7600
ENDCHAR
STARTCHAR atilde
ENCODING 227
SWIDTH 602 0
DWIDTH 9 0
BBX 9 11 0 0
BITMAP
2400
7c00
d800
0000
7c00
c600
7e00
c600
c600
ce00
7600
ENDCHAR
STARTCHAR adieresis
ENCODING 228
SWIDTH 602 0
DWIDTH 9 0
BBX 9 11 0 0
BITMAP
6c00
6c00
0000
0000
7c00
c600
7e00
c600
c600
ce00
7600
ENDCHAR
STARTCHAR aring
ENCODING 229
SWIDTH 602 0
DWIDTH 9 0
BBX 9 10 0 0
BITMAP
3800
2800
3800
7c00
c600
7e00
c600
c600
ce00
7600
ENDCHAR
STARTCHAR ae
ENCODING 230
SWIDTH 602 0
DWIDTH 9 0
BBX 9 7 0 0
BITMAP
7e00
db00
7b00
df00
d800
df00
7600
ENDCHAR
STARTCHAR ccedilla
ENCODING 231
SWIDTH 602 0
DWIDTH 9 0
BBX 9 10 0 -3
BITMAP
7c00
c600
c000
c000
c000
c600
7c00
1800
6c00
3800
ENDCHAR
STARTCHAR egrave
ENCODING 232
SWIDTH 602 0
DWIDTH 9 0
BBX 9 11 0 0
BITMAP
6000
3000
1800
0000
7c00
c600
c600
fe00
c000
c600
7c00
ENDCHAR
STARTCHAR eacute
ENCODING 233
SWIDTH 602 0
DWIDTH 9 0
BBX 9 11 0 0
BITMAP
0c00
1800
3000
0000
7c00
c600
c600
fe00
c000
c600
7c00
ENDCHAR
STARTCHAR ecircumflex
ENCODING 234
SWIDTH 602 0
DWIDTH 9 0
BBX 9 11 0 0
BITMAP
1000
3800
6c00
0000
7c00
c600
c600
fe00
c000
c600
7c00
ENDCHAR
STARTCHAR edieresis
ENCODING 235
SWIDTH 602 0
DWIDTH 9 0
BBX 9 11 0 0
BITMAP
6c00
6c00
0000
0000
7c00
c600
c600
fe00
c000
c600
7c00
ENDCHAR
STARTCHAR igrave
ENCODING 236
SWIDTH 602 0
DWIDTH 9 0
BBX 9 11 0 0
BITMAP
3000
1800
0c00
0000
3800
1800
1800
1800
1800
1800
3c00
ENDCHAR
STARTCHAR iacute
ENCODING 237
SWIDTH 602 0
DWIDTH 9 0
BBX 9 11 0 0
BITMAP
0c00
1800
3000
0000
3800
1800
1800
1800
1800
1800
3c00
ENDCHAR
STARTCHAR icircumflex
ENCODING 238
SWIDTH 602 0
DWIDTH 9 0
BBX 9 11 0 0
BITMAP
1000
3800
6c00
0000
3800
1800
1800
1800
1800
1800
3c00
ENDCHAR
STARTCHAR idieresis
ENCODING 239
SWIDTH 602 0
DWIDTH 9 0
BBX 9 11 0 0
BITMAP
6c00
6c00
0000
0000
3800
1800
1800
1800
1800
1800
3c00
ENDCHAR
STARTCHAR eth
ENCODING 240
SWIDTH 602 0
DWIDTH 9 0
BBX 9 11 0 0
BITMAP
c800
7800
7000
d800
1c00
6c00
c600
c600
c600
c600
7c00
ENDCHAR
STARTCHAR ntilde
ENCODING 241
SWIDTH 602 0
DWIDTH 9 0
BBX 9 11 0 0
BITMAP
2400
7c00
d800
0000
dc00
e600
c600
c600
c600
c600
c600
ENDCHAR
STARTCHAR ograve
ENCODING 242
SWIDTH 602 0
DWIDTH 9 0
BBX 9 11 0 0
BITMAP
6000
3000
1800
0000
7c00
c600
c600
c600
c600
c600
7c00
ENDCHAR
STARTCHAR oacute
ENCODING 243
SWIDTH 602 0
DWIDTH 9 0
BBX 9 11 0 0
BITMAP
0c00
1800
3000
0000
7c00
c600
c600
c600
c600
c600
7c00
ENDCHAR
STARTCHAR ocircumflex
ENCODING 244
SWIDTH 602 0
DWIDTH 9 0
BBX 9 11 0 0
BITMAP
1000
3800
6c00
0000
7c00
c600
c600
c600
c600
c600
7c00
ENDCHAR
STARTCHAR otilde
ENCODING 245
SWIDTH 602 0
DWIDTH 9 0
BBX 9 11 0 0
BITMAP
2400
7c00
d800
0000
7c00
c600
c600
c600
c600
c600
7c00
ENDCHAR
STARTCHAR odieresis
ENCODING 246
SWIDTH 602 0
DWIDTH 9 0
BBX 9 11 0 0
BITMAP
6c00
6c00
0000
0000
7c00
c600
c600
c600
c600
c600
7c00
ENDCHAR
STARTCHAR divide
ENCODING 247
SWIDTH 602 0
DWIDTH 9 0
BBX 9 8 0 1
BITMAP
1800
1800
0000
7e00
7e00
0000
1800
1800
ENDCHAR
STARTCHAR oslash
ENCODING 248
SWIDTH 602 0
DWIDTH 9 0
BBX 9 9 0 -1
BITMAP
0600
7c00
ce00
de00
d600
f600
e600
7c00
c000
ENDCHAR
STARTCHAR ugrave
ENCODING 249
SWIDTH 602 0
DWIDTH 9 0
BBX 9 11 0 0
BITMAP
6000
3000
1800
0000
c600
c600
c600
c600
c600
ce00
7600
ENDCHAR
STARTCHAR uacute
ENCODING 250
SWIDTH 602 0
DWIDTH 9 0
BBX 9 11 0 0
BITMAP
0c00
1800
3000
0000
c600
c600
c600
c600
c600
ce00
7600
ENDCHAR
STARTCHAR ucircumflex
ENCODING 251
SWIDTH 602 0
DWIDTH 9 0
BBX 9 11 0 0
BITMAP
1000
3800
6c00
0000
c600
c600
c600
c600
c600
ce00
7600
ENDCHAR
STARTCHAR udieresis
ENCODING 252
SWIDTH 602 0
DWIDTH 9 0
BBX 9 11 0 0
BITMAP
6c00
6c00
0000
0000
c600
c600
c600
c600
c600
ce00
7600
ENDCHAR
STARTCHAR yacute
ENCODING 253
SWIDTH 602 0
DWIDTH 9 0
BBX 9 13 0 -2
BITMAP
0c00
1800
3000
0000
c600
c600
c600
c600
ce00
7600
0600
c600
7c00
ENDCHAR
STARTCHAR thorn
ENCODING 254
SWIDTH 602 0
DWIDTH 9 0
BBX 9 11 0 -2
BITMAP
6000
6000
6000
7c00
6600
6600
6600
7c00
6000
6000
6000
ENDCHAR
STARTCHAR ydieresis
ENCODING 255
SWIDTH 602 0
DWIDTH 9 0
BBX 9 13 0 -2
BITMAP
6c00
6c00
0000
0000
c600
c600
c600
c600
ce00
7600
0600
c600
7c00
ENDCHAR
ENDFONT
